<?xml version="1.0" standalone="no"?>
<!DOCTYPE svg PUBLIC "-//W3C//DTD SVG 20010904//EN"
 "http://www.w3.org/TR/2001/REC-SVG-20010904/DTD/svg10.dtd">
<svg version="1.0" xmlns="http://www.w3.org/2000/svg"
 width="413.000000pt" height="99.000000pt" viewBox="0 0 413.000000 99.000000"
 preserveAspectRatio="xMidYMid meet">

<g transform="translate(0.000000,99.000000) scale(0.100000,-0.100000)"
fill="#000000" stroke="none">
<path d="M355 891 c-36 -15 -182 -176 -190 -209 -8 -38 10 -78 47 -105 49 -36
88 -17 185 90 74 82 83 97 83 131 0 62 -71 115 -125 93z m70 -17 c25 -10 48
-62 40 -93 -3 -14 -22 -43 -42 -63 l-36 -37 -58 52 c-33 28 -59 54 -59 58 0 3
17 24 38 47 39 42 73 52 117 36z m-113 -151 l48 -47 -37 -38 c-27 -28 -45 -38
-68 -38 -43 0 -75 25 -75 59 0 28 56 111 74 111 6 0 32 -21 58 -47z"/>
<path d="M543 879 c-7 -7 -13 -18 -13 -25 0 -6 -7 -25 -15 -40 -10 -21 -15
-61 -15 -136 0 -115 11 -155 44 -164 20 -5 265 -7 376 -3 30 1 91 -3 135 -9
44 -5 152 -8 240 -7 136 3 167 7 207 25 75 33 68 40 -34 40 -51 0 -173 1 -270
1 -97 0 -181 -2 -187 -5 -5 -3 -11 1 -15 9 -6 17 -56 21 -56 5 0 -7 -46 -10
-130 -9 -117 1 -130 3 -130 19 0 10 7 23 15 30 8 7 17 27 21 46 6 32 8 34 50
34 l43 0 7 -46 c5 -38 9 -43 20 -32 15 15 36 101 23 92 -14 -8 -10 20 6 43 15
22 48 134 41 141 -3 2 -13 -9 -23 -25 -10 -15 -28 -36 -40 -46 -15 -12 -23
-29 -23 -48 l0 -29 -126 0 c-124 0 -125 0 -122 -22 2 -19 10 -24 46 -26 l42
-3 0 -49 c0 -26 3 -56 6 -65 6 -14 -3 -16 -65 -14 -60 2 -71 4 -71 19 0 10 7
23 15 30 9 8 15 29 15 56 0 34 -3 42 -15 38 -20 -8 -19 15 0 44 20 28 18 151
-2 131z"/>
<path d="M1133 879 c-7 -7 -13 -19 -13 -25 0 -7 -9 -19 -21 -27 -17 -12 -19
-21 -14 -51 l7 -36 -41 0 c-41 0 -46 -5 -35 -34 4 -11 19 -16 45 -16 36 0 39
-2 50 -40 16 -52 33 -46 37 13 3 39 0 46 -12 41 -21 -8 -21 15 -1 44 20 28 18
151 -2 131z"/>
<path d="M1978 873 c-13 -14 -18 -36 -18 -76 l0 -57 -45 0 c-41 0 -45 -2 -45
-25 0 -22 4 -25 39 -25 47 0 56 -16 41 -71 -14 -52 -36 -62 -139 -58 -47 2
-92 0 -100 -5 -10 -6 -18 -3 -27 9 -12 16 -12 22 1 41 21 32 21 106 0 98 -19
-8 -20 15 -1 41 7 11 16 42 20 69 9 61 -6 54 -40 -18 -30 -65 -35 -206 -7
-246 36 -52 87 -66 169 -44 40 10 78 13 119 9 60 -6 125 10 140 35 5 8 -45 15
-102 13 -18 -1 -16 42 2 57 9 7 15 29 15 52 0 32 -3 39 -15 34 -20 -7 -20 18
1 48 10 17 14 42 12 81 -3 55 -4 57 -20 38z"/>
<path d="M2327 884 c-23 -24 -50 -107 -54 -171 -7 -90 3 -156 27 -185 17 -22
20 -22 66 -10 27 7 55 18 63 25 12 10 4 13 -40 17 -30 3 -60 1 -66 -4 -19 -13
-17 38 2 54 10 8 15 30 15 62 0 44 -2 49 -15 38 -12 -10 -15 -9 -15 5 0 10 7
26 16 36 11 12 14 33 12 79 -2 34 -7 58 -11 54z"/>
<path d="M3218 870 c-12 -16 -18 -43 -18 -77 l0 -53 -46 0 c-41 0 -45 -2 -42
-22 2 -19 11 -24 43 -28 l40 -5 3 -63 3 -63 -66 2 c-39 1 -65 6 -65 13 0 6 -4
5 -9 -2 -5 -8 -24 -13 -47 -12 -22 1 -43 1 -49 0 -5 -1 -13 -2 -17 -1 -33 5
-238 2 -247 -3 -6 -4 -11 -1 -11 8 0 11 -9 16 -30 16 -16 0 -30 -5 -30 -11 0
-6 -23 -9 -60 -8 -66 3 -76 15 -41 53 22 24 41 104 22 92 -16 -10 -14 -4 14
51 13 26 27 66 31 88 l6 40 -34 -32 c-28 -28 -42 -33 -81 -33 -46 0 -47 -1
-47 -30 0 -29 2 -30 45 -30 25 0 45 -4 45 -10 0 -6 -37 -10 -90 -10 -89 0 -90
0 -90 -25 0 -25 1 -25 88 -27 48 -1 67 -3 43 -5 l-43 -4 4 -51 c4 -39 12 -57
37 -81 36 -37 12 -35 446 -42 143 -2 294 -5 335 -6 59 -2 85 2 122 20 26 12
50 26 53 31 7 12 -203 18 -216 5 -5 -5 -9 1 -9 17 0 14 7 31 15 38 9 8 15 29
15 56 0 34 -3 42 -15 38 -20 -8 -19 15 0 44 11 15 15 40 13 84 l-3 63 -17 -25z"/>
<path d="M687 866 c-10 -11 -17 -33 -17 -57 0 -32 4 -39 19 -39 21 0 33 47 22
88 -6 23 -8 24 -24 8z"/>
<path d="M1354 868 c-28 -39 -43 -80 -50 -129 -4 -29 -11 -62 -15 -71 -8 -14
-3 -18 25 -24 20 -3 37 -13 39 -23 3 -12 7 -10 17 11 16 33 6 80 -15 72 -11
-5 -14 -2 -9 12 4 11 10 24 14 29 12 16 20 98 11 118 -5 15 -9 16 -17 5z"/>
<path d="M2807 846 c-18 -22 -27 -47 -27 -70 0 -35 -1 -36 -41 -36 -33 0 -40
-3 -35 -16 3 -9 6 -20 6 -25 0 -5 20 -9 44 -9 42 0 44 -1 50 -35 9 -44 23 -53
37 -21 13 27 4 80 -11 71 -6 -3 -10 3 -10 14 0 11 4 22 9 25 14 9 24 102 14
121 -8 14 -14 11 -36 -19z"/>
<path d="M3024 861 c-21 -17 -23 -43 -8 -91 5 -13 6 -13 14 0 9 16 25 110 19
110 -2 -1 -14 -9 -25 -19z"/>
<path d="M1807 813 c-4 -3 -7 -21 -7 -40 0 -33 -1 -33 -46 -33 -41 0 -45 -2
-42 -22 2 -19 10 -24 46 -26 33 -2 42 -7 42 -21 0 -29 26 -46 46 -31 18 15 15
66 -3 63 -15 -3 -17 28 -4 43 9 9 14 37 12 62 -1 13 -33 17 -44 5z"/>
<path d="M2100 790 c0 -23 4 -30 20 -30 11 0 20 7 20 15 0 8 6 15 14 15 7 0
19 7 26 15 11 13 6 15 -34 15 -44 0 -46 -1 -46 -30z"/>
<path d="M3340 795 c0 -33 34 -34 75 0 l30 24 -52 1 c-50 0 -53 -1 -53 -25z"/>
<path d="M982 780 c0 -14 2 -19 5 -12 2 6 2 18 0 25 -3 6 -5 1 -5 -13z"/>
<path d="M2672 775 c0 -16 2 -22 5 -12 2 9 2 23 0 30 -3 6 -5 -1 -5 -18z"/>
<path d="M886 724 c-11 -29 -6 -34 39 -34 41 0 45 2 45 25 0 22 -4 25 -39 25
-26 0 -41 -5 -45 -16z"/>
<path d="M1160 731 c0 -30 14 -41 51 -41 21 0 39 4 39 9 0 5 3 16 6 25 5 13
-2 16 -45 16 -28 0 -51 -4 -51 -9z"/>
<path d="M1388 715 c4 -21 10 -25 42 -25 36 0 50 12 50 41 0 5 -22 9 -49 9
-46 0 -48 -1 -43 -25z"/>
<path d="M2010 715 c0 -25 1 -25 85 -25 84 0 85 0 85 25 0 25 -1 25 -85 25
-84 0 -85 0 -85 -25z"/>
<path d="M2580 715 c0 -24 3 -25 60 -25 36 0 60 4 60 11 0 6 -9 8 -21 4 -19
-6 -21 -4 -16 14 5 19 1 21 -39 21 -40 0 -44 -2 -44 -25z"/>
<path d="M2860 715 c0 -22 4 -25 40 -25 l40 0 0 -41 c0 -28 4 -39 13 -37 19 7
20 37 2 84 -16 42 -19 44 -56 44 -35 0 -39 -3 -39 -25z"/>
<path d="M2964 724 c3 -9 6 -20 6 -25 0 -5 25 -9 56 -9 l55 0 -7 -47 c-6 -44
-6 -47 9 -34 17 14 22 66 11 109 -7 26 -54 32 -54 7 0 -8 -4 -15 -10 -15 -5 0
-10 7 -10 15 0 10 -10 15 -31 15 -24 0 -30 -3 -25 -16z"/>
<path d="M3252 718 c2 -19 10 -24 46 -26 37 -3 42 -6 42 -28 0 -16 6 -24 18
-24 25 0 72 51 72 78 0 21 -4 22 -91 22 -88 0 -90 -1 -87 -22z"/>
<path d="M980 700 c0 -5 5 -10 10 -10 6 0 10 5 10 10 0 6 -4 10 -10 10 -5 0
-10 -4 -10 -10z"/>
<path d="M2100 648 c0 -29 1 -30 18 -15 10 10 23 17 29 17 6 0 16 7 23 15 11
13 7 15 -29 15 -39 0 -41 -1 -41 -32z"/>
<path d="M3685 411 c-36 -15 -182 -176 -190 -209 -8 -38 10 -78 47 -105 49
-36 88 -17 185 90 71 79 83 97 83 128 0 62 -72 118 -125 96z m70 -17 c25 -10
48 -62 40 -93 -3 -14 -22 -43 -42 -63 l-36 -37 -58 52 c-33 28 -59 54 -59 58
0 3 17 24 38 47 39 42 73 52 117 36z m-113 -151 l48 -47 -37 -38 c-27 -28 -45
-38 -68 -38 -43 0 -75 25 -75 59 0 28 56 111 74 111 6 0 32 -21 58 -47z"/>
<path d="M554 389 c-25 -31 -26 -89 -4 -131 12 -23 24 -64 26 -92 10 -99 15
-116 39 -132 21 -13 29 -14 62 -3 21 7 45 19 53 26 12 11 6 13 -35 15 -28 0
-58 1 -67 0 -24 -2 -23 24 2 55 11 14 20 34 20 44 0 27 -11 50 -21 43 -12 -7
-12 39 0 52 4 5 11 21 15 37 6 26 5 27 -33 27 -39 0 -40 1 -43 37 -2 29 -5 33
-14 22z"/>
<path d="M1112 388 c-7 -7 -12 -38 -12 -70 l0 -58 -43 0 c-50 0 -57 -4 -50
-31 4 -15 14 -19 44 -19 l39 0 0 -45 c0 -35 -6 -52 -25 -70 -21 -21 -33 -25
-89 -25 -36 0 -76 4 -90 10 -16 6 -27 6 -31 0 -10 -16 -32 -12 -39 6 -4 9 0
24 9 34 9 10 15 36 15 65 0 41 -2 46 -15 35 -12 -10 -15 -9 -15 5 0 10 6 26
14 34 19 23 28 111 10 104 -8 -3 -14 -11 -14 -19 0 -9 -12 -14 -35 -14 -33 0
-35 -2 -35 -35 0 -35 0 -35 -45 -35 -41 0 -45 -2 -45 -24 0 -22 5 -25 43 -28
l42 -3 3 -49 c8 -118 114 -175 246 -130 39 14 54 14 91 4 46 -13 103 -1 135
27 12 11 7 13 -33 14 -69 3 -71 3 -79 13 -3 5 3 26 14 46 21 36 19 98 -2 85
-6 -3 -10 5 -10 19 0 14 4 27 9 30 13 9 23 89 14 114 -7 18 -11 20 -21 10z"/>
<path d="M1473 388 c-28 -38 -36 -98 -24 -181 28 -188 30 -190 189 -192 79 -2
132 2 165 12 38 12 58 13 90 4 28 -7 277 -12 722 -15 675 -4 680 -4 723 17 23
11 42 24 42 29 0 8 -106 12 -227 8 -52 -1 -73 1 -73 10 0 8 -4 9 -12 3 -7 -6
-48 -10 -90 -11 -69 -1 -78 1 -78 17 0 10 7 24 15 31 10 8 15 30 15 62 0 46
-2 49 -16 37 -15 -12 -16 -11 -9 11 4 14 11 29 16 34 5 6 9 39 9 74 0 55 -2
63 -14 52 -8 -6 -16 -21 -18 -33 -3 -19 -10 -22 -55 -25 -49 -3 -53 -5 -53
-28 0 -22 4 -24 45 -24 25 0 45 -4 45 -10 0 -6 -36 -10 -89 -10 -91 0 -106 -5
-95 -34 4 -11 19 -16 44 -16 35 0 39 -3 45 -30 6 -28 9 -30 56 -30 l49 0 0
-41 0 -40 -116 2 c-123 2 -143 11 -111 47 16 17 22 46 18 92 -1 20 -3 22 -11
10 -8 -12 -10 -9 -10 12 0 15 4 29 9 32 12 8 20 82 12 113 l-7 27 -17 -24
c-10 -15 -17 -44 -17 -72 l0 -48 -118 0 c-65 0 -121 -3 -124 -6 -3 -3 -4 -14
-1 -25 4 -15 14 -19 44 -19 l39 0 0 -71 0 -70 -61 3 c-66 3 -82 16 -56 46 8 9
18 27 21 40 9 26 -2 65 -15 57 -5 -4 -9 5 -9 19 0 14 4 27 9 30 13 8 21 78 13
110 -7 26 -9 27 -22 12 -7 -10 -15 -42 -18 -72 l-4 -54 -119 0 -119 0 0 -25
c0 -22 4 -25 39 -25 38 0 39 -1 43 -42 2 -23 2 -55 0 -71 -4 -28 -5 -28 -63
-25 -53 2 -59 5 -59 24 0 12 7 27 15 34 9 7 15 29 15 52 0 32 -3 39 -15 34
-20 -7 -20 32 0 58 9 12 15 42 15 73 0 50 -1 53 -19 44 -14 -8 -21 -27 -26
-70 l-7 -60 -41 -3 c-34 -2 -42 -7 -42 -23 0 -16 8 -21 43 -23 l42 -3 0 -70 0
-70 -65 2 c-54 2 -65 5 -65 19 0 10 7 23 15 30 10 8 15 30 15 62 0 44 -2 49
-15 38 -20 -17 -21 9 0 36 9 12 14 42 14 84 0 57 -1 63 -13 47 -8 -10 -17 -42
-21 -72 l-6 -55 -39 0 c-42 0 -54 -9 -44 -34 4 -10 18 -16 35 -16 27 0 29 -3
29 -39 0 -21 -3 -53 -6 -70 l-7 -32 -83 2 c-80 3 -84 4 -84 25 0 13 5 26 10
29 14 8 13 61 -2 102 -10 28 -17 33 -38 31 -17 -2 -26 -10 -28 -25 -3 -19 1
-23 22 -23 23 0 26 -4 26 -32 0 -18 -3 -50 -6 -71 l-7 -38 -83 2 c-80 3 -84 4
-84 25 0 13 5 26 10 29 11 7 13 48 4 83 -5 18 -9 20 -20 11 -11 -9 -14 -7 -14
10 0 12 5 29 11 39 8 12 9 38 5 75 -7 57 -15 68 -33 45z m867 -249 l0 -70 -66
3 c-73 2 -95 19 -67 51 15 16 15 20 0 53 -9 19 -17 36 -17 37 0 1 34 1 75 -1
l75 -4 0 -69z m298 -2 l3 -68 -66 3 c-53 2 -69 6 -77 21 -7 14 -6 23 5 35 14
15 14 21 1 51 -8 18 -14 34 -14 35 0 0 33 -1 72 -4 l73 -5 3 -68z"/>
<path d="M1623 374 c-11 -17 -16 -42 -14 -70 l3 -44 -42 0 c-37 0 -41 -2 -38
-22 2 -18 11 -24 38 -26 19 -2 39 -9 43 -15 5 -7 6 2 3 21 -4 21 0 41 9 55 14
23 32 127 22 127 -4 0 -14 -12 -24 -26z"/>
<path d="M1795 384 c-13 -14 -16 -30 -13 -71 l5 -53 -34 0 c-18 0 -33 -4 -33
-9 0 -26 15 -41 40 -41 19 0 30 -6 33 -17 3 -10 5 2 5 27 0 25 4 74 10 110 6
35 10 66 8 68 -2 1 -11 -5 -21 -14z"/>
<path d="M2221 386 c-10 -12 -10 -23 -1 -51 15 -46 30 -45 30 3 0 49 -12 68
-29 48z"/>
<path d="M2522 387 c-12 -14 -12 -23 -1 -54 13 -37 14 -37 17 -10 2 15 2 39 0
54 -3 24 -4 25 -16 10z"/>
<path d="M3198 356 c-12 -9 -18 -27 -18 -55 l0 -41 -47 -2 c-27 -1 -78 -1
-114 1 -68 3 -84 -4 -73 -33 5 -13 23 -16 99 -16 l93 0 22 -52 c22 -52 22 -52
40 -31 13 17 30 23 76 25 48 2 59 6 62 22 2 10 -2 22 -10 27 -8 5 9 9 45 9 55
0 58 1 55 23 -3 21 -7 22 -103 22 -94 0 -100 -1 -97 -20 2 -11 1 -17 -4 -13
-4 4 -13 3 -20 -3 -21 -17 -30 18 -11 39 8 9 17 38 19 65 2 26 3 47 3 47 0 0
-8 -7 -17 -14z"/>
<path d="M947 334 c-4 -4 -7 -22 -7 -41 0 -33 -1 -33 -45 -33 -41 0 -45 -2
-45 -24 0 -22 5 -25 42 -28 36 -3 43 -7 48 -28 4 -16 14 -26 28 -28 19 -3 22
1 22 33 0 22 -4 34 -10 30 -14 -8 -13 38 1 52 15 15 7 67 -11 71 -9 1 -19 0
-23 -4z"/>
<path d="M3313 324 c-9 -24 12 -37 50 -30 46 9 66 31 35 40 -41 11 -78 7 -85
-10z"/>
<path d="M1240 295 c0 -35 0 -35 -45 -35 -41 0 -45 -2 -45 -25 l0 -25 105 0
c94 0 105 2 115 20 9 16 8 22 -5 26 -16 6 -63 1 -105 -12 -24 -7 -24 -7 -7 13
21 25 23 73 2 73 -10 0 -15 -11 -15 -35z"/>
<path d="M3040 295 c0 -39 14 -46 30 -16 16 31 12 51 -10 51 -16 0 -20 -7 -20
-35z"/>
<path d="M1288 182 c-48 -3 -48 -3 -48 -38 l0 -36 38 23 c41 25 68 47 61 51
-2 2 -25 2 -51 0z"/>
<path d="M3037 183 c-8 -13 5 -63 14 -57 12 7 12 51 0 59 -5 3 -12 2 -14 -2z"/>
</g>
</svg>
